{"title":"El Ragol El Ghamed Beslamto 2010 Arabic DVDRip X264 ACC - alrmot","uid":8178092,"size":1908117473,"categoryP":"video","categoryS":"movies","magnet":"?xt=urn:btih:c7751f74ef2b4f48fa8525f535917a878e893bf8&amp;dn=El+Ragol+El+Ghamed+Beslamto+2010+Arabic+DVDRip+X264+ACC+-+alrmot&amp;tr=udp%3A%2F%2Ftracker.openbittorrent.com%3A80&amp;tr=udp%3A%2F%2Fopen.demonii.com%3A1337&amp;tr=udp%3A%2F%2Ftracker.coppersurfer.tk%3A6969&amp;tr=udp%3A%2F%2Fexodus.desync.com%3A6969","seeders":0,"leechers":1,"uploader":".alrmothe","files":22,"time":1361569107,"description":"*********************************************************************\n \nEl Ragol El Ghamed Beslamto 2010 Arabic DVDRip X264 ACC - alrmothe\n\n*********************************************************************\n\nTiTLE: El Ragol El Ghamed Beslamto\nYEAR:2010\nGENRE : Comedy\nelcinema URL : http://www.elcinema.com/work/wk1293121/\nSIZE : 1.77 GB\nFormat : mp4 \nOverall bit rate:2417 Kbps\nSub: No \nEncoded / Released By:alrmothe\n*********************************************************************\n\nVideo\nFormat : AVC\nFormat/Info : Advanced Video Codec\nFormat profile : &lt;a class=&quot;__cf_email__&quot; href=&quot;/cdn-cgi/l/email-protection&quot; data-cfemail=&quot;3f775658577f730c110f&quot;&gt;[email&amp;#160;protected]&lt;/a&gt;&lt;script cf-hash='f9e31' type=&quot;text/javascript&quot;&gt;\n/* &lt;![CDATA[ */!function(){try{var t=&quot;currentScript&quot;in document?document.currentScript:function(){for(var t=document.getElementsByTagName(&quot;script&quot;),e=t.length;e--;)if(t[e].getAttribute(&quot;cf-hash&quot;))return t[e]}();if(t&amp;&amp;t.previousSibling){var e,r,n,i,c=t.previousSibling,a=c.getAttribute(&quot;data-cfemail&quot;);if(a){for(e=&quot;&quot;,r=parseInt(a.substr(0,2),16),n=2;a.length-n;n+=2)i=parseInt(a.substr(n,2),16)^r,e+=String.fromCharCode(i);e=document.createTextNode(e),c.parentNode.replaceChild(e,c)}}}catch(u){}}();/* ]]&gt; */&lt;/script&gt;\nRuntime: 1h 45min 5sec\nbit rate: 2235 Kbps\nWidth: 716 pixels\nHeight: 416 pixels\nFrame rate: 25 fps\nBit depth : 8 bits\nBits/(Pixel*Frame) : 0.300\nStream size : 1.64 GiB (92%)\n\nAudio: Arabic\nFormat: ACC\nBit rate: 178 Kbps\nSampling rate: 48.0 KHz\nChannel(s): 2 channels\nStream size : 134 MiB (8%)\nLanguage : Arabic\n\n***********************************\n\n\n\nScreenshots &lt;a href=&quot;\nhttp://img689.imageshack.us/img689/1448/vlcsnap2013022222h02m47.png&quot; rel=&quot;nofollow&quot; target=&quot;_NEW&quot;&gt;\nhttp://img689.imageshack.us/img689/1448/vlcsnap2013022222h02m47.png&lt;/a&gt; &lt;a href=&quot;\nhttp://img685.imageshack.us/img685/5153/vlcsnap2013022222h05m12.png&quot; rel=&quot;nofollow&quot; target=&quot;_NEW&quot;&gt;\nhttp://img685.imageshack.us/img685/5153/vlcsnap2013022222h05m12.png&lt;/a&gt; &lt;a href=&quot;\nhttp://img42.imageshack.us/img42/9473/vlcsnap2013022222h06m02.png&quot; rel=&quot;nofollow&quot; target=&quot;_NEW&quot;&gt;\nhttp://img42.imageshack.us/img42/9473/vlcsnap2013022222h06m02.png&lt;/a&gt; &lt;a href=&quot;\nhttp://img836.imageshack.us/img836/6167/elragolelghamedbeslamto.png&quot; rel=&quot;nofollow&quot; target=&quot;_NEW&quot;&gt;\nhttp://img836.imageshack.us/img836/6167/elragolelghamedbeslamto.png&lt;/a&gt;\n","torrent":{"xt":"urn:btih:c7751f74ef2b4f48fa8525f535917a878e893bf8","amp;dn":"El+Ragol+El+Ghamed+Beslamto+2010+Arabic+DVDRip+X264+ACC+-+alrmot","amp;tr":["udp%3A%2F%2Ftracker.openbittorrent.com%3A80","udp%3A%2F%2Fopen.demonii.com%3A1337","udp%3A%2F%2Ftracker.coppersurfer.tk%3A6969","udp%3A%2F%2Fexodus.desync.com%3A6969"],"infoHash":"c7751f74ef2b4f48fa8525f535917a878e893bf8","infoHashBuffer":{"type":"Buffer","data":[199,117,31,116,239,43,79,72,250,133,37,245,53,145,122,135,142,137,59,248]},"announce":[],"urlList":[]}}